<svg xmlns="http://www.w3.org/2000/svg" viewBox="0 0 24 24" width="24" height="24" class="ljr-icon" data-ljr-icon="fullscreen" aria-hidden="true" focusable="false" style="fill:currentColor!important;stroke:none!important;stroke-width:0!important"><path d="M7,14H5V18C5,18.5523 5.4477,19 6,19H10V17H7.2C7.0895,17 7,16.9105 7,16.8V14ZM5,10H7V7.2C7,7.0895 7.0895,7 7.2,7H10V5H6C5.4477,5 5,5.4477 5,6V10ZM17,16.8C17,16.9105 16.9105,17 16.8,17H14V19H18C18.5523,19 19,18.5523 19,18V14H17V16.8ZM14,5V7H16.8C16.9105,7 17,7.0895 17,7.2V10H19V6C19,5.4477 18.5523,5 18,5H14Z" fill="currentColor" stroke="none" style="fill:currentColor!important;stroke:none!important" /></svg>