<svg xmlns="http://www.w3.org/2000/svg" viewBox="0 0 24 24" width="24" height="24" class="ljr-icon" data-ljr-icon="notification" aria-hidden="true" focusable="false" style="fill:currentColor!important;stroke:none!important;stroke-width:0!important"><path d="M19.2901,17.29L18.0001,16V11C18.0001,7.93 16.3601,5.36 13.5001,4.68V4C13.5001,3.17 12.8301,2.5 12.0001,2.5C11.1701,2.5 10.5001,3.17 10.5001,4V4.68C7.6301,5.36 6.0001,7.92 6.0001,11V16L4.7101,17.29C4.08,17.92 4.5201,19 5.41,19H18.5801C19.4801,19 19.9201,17.92 19.2901,17.29ZM16.0001,17H8V11C8,8.52 9.51,6.5 12.0001,6.5C14.4901,6.5 16.0001,8.52 16.0001,11V17ZM12.0001,22C13.1001,22 14.0001,21.1 14.0001,20H10.0001C10.0001,21.1 10.8901,22 12.0001,22Z" fill="currentColor" stroke="none" fill-rule="nonzero" style="fill:currentColor!important;stroke:none!important" /></svg>